# xmcd
#
# Track frame offsets:
#	150
#	11820
#	24188
#	35798
#	47693
#	61193
#	76733
#	89461
#	101686
#	111706
#	121164
#
# Disc length: 1735 seconds
#
# Revision: 1
# Processed by: cddbd v1.5.2PL0 Copyright (c) Steve Scherf et al.
# Submitted via: audiograbber 1.83.01
#
DISCID=8806c50b
DTITLE=Loretta Lynn and Conway Twitty - Country Partners
DYEAR=1974
DGENRE=Country
TTITLE0=As Soon As I Hang Up The Phone
TTITLE1=Don't Mess Up A Good Thing
TTITLE2=Love's Not Where Love Should Be
TTITLE3=Two Lonely People
TTITLE4=I Changed My Life
TTITLE5=Country Bumpkin
TTITLE6=Spiders And Snakes
TTITLE7=I'm Getting Tired Of Losing You
TTITLE8=Sweet Things I Remember About You
TTITLE9=It All Falls Down
TTITLE10=A Lifetime Before
EXTD=This CD is made from one of my LP's
EXTT0=
EXTT1=
EXTT2=
EXTT3=
EXTT4=
EXTT5=
EXTT6=
EXTT7=
EXTT8=
EXTT9=
EXTT10=
PLAYORDER=
